<svg width="943" height="480" xmlns="http://www.w3.org/2000/svg" xmlns:xlink="http://www.w3.org/1999/xlink" overflow="hidden"><defs><filter id="fx0" x="-10%" y="-10%" width="120%" height="120%" filterUnits="userSpaceOnUse" primitiveUnits="userSpaceOnUse"><feComponentTransfer color-interpolation-filters="sRGB"><feFuncR type="discrete" tableValues="0 0"/><feFuncG type="discrete" tableValues="0 0"/><feFuncB type="discrete" tableValues="0 0"/><feFuncA type="linear" slope="0.4" intercept="0"/></feComponentTransfer><feGaussianBlur stdDeviation="2.25439 2.25439"/></filter><filter id="fx1" x="-10%" y="-10%" width="120%" height="120%" filterUnits="userSpaceOnUse" primitiveUnits="userSpaceOnUse"><feComponentTransfer color-interpolation-filters="sRGB"><feFuncR type="discrete" tableValues="0 0"/><feFuncG type="discrete" tableValues="0 0"/><feFuncB type="discrete" tableValues="0 0"/><feFuncA type="linear" slope="0.4" intercept="0"/></feComponentTransfer><feGaussianBlur stdDeviation="2.25439 2.25439"/></filter><filter id="fx2" x="-10%" y="-10%" width="120%" height="120%" filterUnits="userSpaceOnUse" primitiveUnits="userSpaceOnUse"><feComponentTransfer color-interpolation-filters="sRGB"><feFuncR type="discrete" tableValues="0 0"/><feFuncG type="discrete" tableValues="0 0"/><feFuncB type="discrete" tableValues="0 0"/><feFuncA type="linear" slope="0.4" intercept="0"/></feComponentTransfer><feGaussianBlur stdDeviation="2.25439 2.25439"/></filter><filter id="fx3" x="-10%" y="-10%" width="120%" height="120%" filterUnits="userSpaceOnUse" primitiveUnits="userSpaceOnUse"><feComponentTransfer color-interpolation-filters="sRGB"><feFuncR type="discrete" tableValues="0 0"/><feFuncG type="discrete" tableValues="0 0"/><feFuncB type="discrete" tableValues="0 0"/><feFuncA type="linear" slope="0.4" intercept="0"/></feComponentTransfer><feGaussianBlur stdDeviation="2.25439 2.25439"/></filter><filter id="fx4" x="-10%" y="-10%" width="120%" height="120%" filterUnits="userSpaceOnUse" primitiveUnits="userSpaceOnUse"><feComponentTransfer color-interpolation-filters="sRGB"><feFuncR type="discrete" tableValues="0 0"/><feFuncG type="discrete" tableValues="0 0"/><feFuncB type="discrete" tableValues="0 0"/><feFuncA type="linear" slope="0.4" intercept="0"/></feComponentTransfer><feGaussianBlur stdDeviation="2.25439 2.25439"/></filter><clipPath id="clip5"><rect x="171" y="177" width="943" height="480"/></clipPath><clipPath id="clip6"><rect x="109" y="100" width="186" height="155"/></clipPath><clipPath id="clip7"><rect x="0" y="0" width="413" height="402"/></clipPath><clipPath id="clip8"><rect x="142" y="127" width="158" height="175"/></clipPath><clipPath id="clip9"><rect x="0" y="0" width="441" height="481"/></clipPath><clipPath id="clip10"><rect x="131" y="122" width="87" height="180"/></clipPath><clipPath id="clip11"><rect x="0" y="0" width="347" height="481"/></clipPath><clipPath id="clip12"><rect x="116" y="105" width="126" height="150"/></clipPath><clipPath id="clip13"><rect x="0" y="0" width="359" height="402"/></clipPath><clipPath id="clip14"><rect x="118" y="105" width="191" height="150"/></clipPath><clipPath id="clip15"><rect x="0" y="0" width="422" height="402"/></clipPath></defs><g clip-path="url(#clip5)" transform="translate(-171 -177)"><g clip-path="url(#clip6)" filter="url(#fx0)" transform="translate(171 224)"><g clip-path="url(#clip7)"><path d="M55.5234-115.18C55.5234-114.461 54.9844-114.042 53.9062-113.922 50.9714-113.622 48.0664-113.353 45.1914-113.113 41.7773-112.634 39.1719-111.436 37.375-109.52 34.4401-106.345 32.9727-98.2891 32.9727-85.3516 34.9492-85.3516 38.0638-85.2917 42.3164-85.1719 46.569-85.0521 49.7734-84.9922 51.9297-84.9922 53.3672-84.9922 54.0859-84.4531 54.0859-83.375 54.0859-81.6979 54.1458-79.1973 54.2656-75.873 54.3854-72.5488 54.4453-70.0781 54.4453-68.4609 54.4453-67.3229 53.8464-66.7539 52.6484-66.7539 50.5521-66.7539 47.3776-66.8587 43.125-67.0684 38.8724-67.278 35.7279-67.3828 33.6914-67.3828L33.6914-40.5195C33.6914-36.3268 33.8411-29.9779 34.1406-21.4727 34.4401-12.9674 34.5898-6.61849 34.5898-2.42578 34.5898-0.808594 33.9909 0 32.793 0L16.3516 0C14.7943 0 14.0156-0.928385 14.0156-2.78516L14.0156-64.5977C14.0156-66.2148 12.1888-66.9935 8.53516-66.9336 4.58203-66.8737 2.48568-67.0234 2.24609-67.3828 2.06641-67.5625 1.97656-68.6706 1.97656-70.707 1.97656-72.0247 1.91667-73.9863 1.79688-76.5918 1.67708-79.1973 1.61719-81.1589 1.61719-82.4766 1.61719-83.7344 5.42057-84.5729 13.0273-84.9922 12.8477-88.8255 12.7578-91.9401 12.7578-94.3359 12.7578-104.937 14.6445-112.694 18.418-117.605 21.7721-122.038 26.6836-125.512 33.1523-128.027 38.9622-130.303 44.9818-131.441 51.2109-131.441 51.8099-131.441 52.2292-131.112 52.4688-130.453 52.5286-130.333 53.0527-127.803 54.041-122.861 55.0293-117.92 55.5234-115.359 55.5234-115.18ZM166.471-124.074C166.471-117.126 166.187-106.719 165.618-92.8535 165.049-78.9876 164.764-68.5807 164.764-61.6328 164.764-59.3568 164.794-55.9577 164.854-51.4355 164.914-46.9134 164.944-43.5443 164.944-41.3281 164.944-28.8099 163.776-20.125 161.44-15.2734 157.846-7.84635 150.868-2.8151 140.507-0.179688 134.158 1.4375 125.203 2.24609 113.643 2.24609 92.6797 2.24609 78.9336-1.22786 72.405-8.17578 67.3737-13.5664 64.8581-24.3477 64.8581-40.5195 64.8581-42.4961 64.888-45.8353 64.9479-50.5371 65.0078-55.2389 65.0378-58.9375 65.0378-61.6328 65.0378-68.7005 64.7383-81.7279 64.1393-100.715 64.1393-105.626 63.8698-112.964 63.3307-122.727 63.2708-123.445 63.2409-123.924 63.2409-124.164 63.2409-125.422 64.0195-126.051 65.5768-126.051 68.0326-126.051 71.3568-126.021 75.5495-125.961 80.401-125.901 83.6953-125.871 85.4323-125.871 86.8099-125.871 87.4987-125.332 87.4987-124.254 87.4987-115.15 87.304-101.464 86.9147-83.1953 86.5254-64.9271 86.3307-51.2409 86.3307-42.1367 86.3307-31.8346 88.6367-24.8568 93.2487-21.2031 97.2018-17.9688 104.479-16.3516 115.081-16.3516 124.724-16.3516 131.582-17.6693 135.655-20.3047 140.806-23.599 143.382-29.7682 143.382-38.8125 143.382-48.276 143.232-62.4863 142.932-81.4434 142.633-100.4 142.483-114.611 142.483-124.074 142.483-125.033 143.352-125.632 145.089-125.871 146.346-126.051 148.143-126.051 150.479-125.871 153.234-125.632 154.552-125.512 154.432-125.512 155.51-125.512 157.143-125.602 159.329-125.781 161.515-125.961 163.147-126.051 164.225-126.051 165.723-126.051 166.471-125.392 166.471-124.074Z" fill="#4472C4" transform="translate(118.366 243)"/></g></g><text fill="#4472C4" font-family="Berlin Sans FB,Berlin Sans FB_MSFontService,sans-serif" font-weight="400" font-size="184" transform="translate(287.083 464)">fU</text><g clip-path="url(#clip8)" filter="url(#fx1)" transform="translate(324 176)"><g clip-path="url(#clip9)"><path d="M146.974-149.024C146.974-140.751 146.686-128.269 146.11-111.579 145.535-94.889 145.247-82.3714 145.247-74.0264 145.247-66.1849 145.319-54.4407 145.463-38.7937 145.607-23.1467 145.679-11.4025 145.679-3.56104 145.679-1.18701 144.779 0 142.981 0 141.902 0 140.283-0.10791 138.125-0.32373 135.967-0.539551 134.348-0.647461 133.269-0.647461 132.118-0.647461 130.355-0.539551 127.981-0.32373 125.607-0.10791 123.845 0 122.694 0 121.399 0 119.852-1.18701 118.054-3.56104 102.515-24.4956 78.9543-55.7176 47.3726-97.2271 42.4806-103.558 39.639-107.083 38.8477-107.802 38.1283-107.802 37.7686-106.327 37.7686-103.378 37.7686-92.2991 37.9484-75.663 38.3081-53.4695 38.6678-31.276 38.8477-14.6398 38.8477-3.56104 38.8477-1.18701 38.1283 0 36.6895 0 35.4665 0 33.596-0.10791 31.0781-0.32373 28.5602-0.539551 26.6898-0.647461 25.4668-0.647461 24.1719-0.647461 22.2475-0.539551 19.6936-0.32373 17.1397-0.10791 15.2153 0 13.9204 0 12.1219 0 11.2227-0.719401 11.2227-2.1582 11.2227-10.0716 11.6003-21.9957 12.3557-37.9304 13.1111-53.8652 13.4888-65.8252 13.4888-73.8105 13.4888-82.5153 13.165-98.1982 12.5176-120.859 12.3737-126.758 12.014-135.607 11.4385-147.405L11.3306-148.808C11.2586-149.887 12.1219-150.463 13.9204-150.535 18.5965-150.607 22.2655-150.75 24.9272-150.966 25.9344-151.038 27.8408-151.326 30.6465-151.83 33.0205-152.261 34.8909-152.477 36.2578-152.477 36.9053-152.477 38.0203-151.434 39.603-149.348 56.1492-126.615 81.4722-92.8027 115.572-47.9121 117.083-46.0417 118.485-44.423 119.78-43.0562 120.284-46.0776 120.536-52.9839 120.536-63.7749 120.536-73.1271 120.194-87.1554 119.51-105.86 118.827-124.564 118.485-138.557 118.485-147.837 118.485-150.211 119.205-151.398 120.644-151.398 121.938-151.398 123.899-151.29 126.525-151.074 129.15-150.858 131.111-150.75 132.406-150.75 133.773-150.75 135.823-150.858 138.557-151.074 141.29-151.29 143.341-151.398 144.708-151.398 146.218-151.398 146.974-150.607 146.974-149.024Z" fill="#4472C4" transform="translate(141.033 291)"/></g></g><text fill="#4472C4" font-family="Berlin Sans FB,Berlin Sans FB_MSFontService,sans-serif" font-weight="400" font-size="221" transform="translate(462.75 464)">N</text><g clip-path="url(#clip10)" filter="url(#fx2)" transform="translate(483 176)"><g clip-path="url(#clip11)"><path d="M66.6885-138.341C66.6885-137.478 66.041-136.974 64.7461-136.83 61.221-136.47 57.7319-136.147 54.2788-135.859 50.1782-135.283 47.0488-133.845 44.8906-131.542 41.3656-127.73 39.603-118.054 39.603-102.515 41.9771-102.515 45.7179-102.443 50.8257-102.299 55.9334-102.155 59.7822-102.083 62.3721-102.083 64.0986-102.083 64.9619-101.436 64.9619-100.141 64.9619-98.1263 65.0339-95.1228 65.1777-91.1301 65.3216-87.1375 65.3936-84.1699 65.3936-82.2275 65.3936-80.8607 64.6741-80.1772 63.2354-80.1772 60.7174-80.1772 56.9046-80.3031 51.7969-80.5549 46.6891-80.8067 42.9123-80.9326 40.4663-80.9326L40.4663-48.6675C40.4663-43.6317 40.6462-36.006 41.0059-25.7905 41.3656-15.575 41.5454-7.94938 41.5454-2.91357 41.5454-0.971191 40.826 0 39.3872 0L19.6396 0C17.7692 0 16.834-1.11507 16.834-3.34521L16.834-77.5874C16.834-79.5298 14.6398-80.465 10.2515-80.3931 5.50342-80.3211 2.98551-80.501 2.69775-80.9326 2.48193-81.1484 2.37402-82.4793 2.37402-84.9253 2.37402-86.508 2.30208-88.864 2.1582-91.9934 2.01432-95.1228 1.94238-97.4788 1.94238-99.0615 1.94238-100.572 6.51058-101.579 15.647-102.083 15.4312-106.687 15.3232-110.428 15.3232-113.306 15.3232-126.039 17.5894-135.355 22.1216-141.254 26.1502-146.578 32.0493-150.75 39.8188-153.772 46.797-156.506 54.027-157.873 61.5088-157.873 62.2282-157.873 62.7318-157.477 63.0195-156.686 63.0915-156.542 63.7209-153.502 64.908-147.567 66.095-141.632 66.6885-138.557 66.6885-138.341Z" fill="#4472C4" transform="translate(140.866 291)"/></g></g><text fill="#4472C4" font-family="Berlin Sans FB,Berlin Sans FB_MSFontService,sans-serif" font-weight="400" font-size="221" transform="translate(621.583 464)">f</text><g clip-path="url(#clip12)" filter="url(#fx3)" transform="translate(570 224)"><g clip-path="url(#clip13)"><path d="M112.305-124.074C112.305-117.126 112.02-106.719 111.451-92.8535 110.882-78.9876 110.598-68.5807 110.598-61.6328 110.598-59.3568 110.628-55.9577 110.688-51.4355 110.747-46.9134 110.777-43.5443 110.777-41.3281 110.777-28.8099 109.609-20.125 107.273-15.2734 103.68-7.84635 96.7018-2.8151 86.3398-0.179688 79.9909 1.4375 71.0365 2.24609 59.4766 2.24609 38.513 2.24609 24.7669-1.22786 18.2383-8.17578 13.207-13.5664 10.6914-24.3477 10.6914-40.5195 10.6914-42.4961 10.7214-45.8353 10.7812-50.5371 10.8411-55.2389 10.8711-58.9375 10.8711-61.6328 10.8711-68.7005 10.5716-81.7279 9.97266-100.715 9.97266-105.626 9.70312-112.964 9.16406-122.727 9.10417-123.445 9.07422-123.924 9.07422-124.164 9.07422-125.422 9.85286-126.051 11.4102-126.051 13.8659-126.051 17.1901-126.021 21.3828-125.961 26.2344-125.901 29.5286-125.871 31.2656-125.871 32.6432-125.871 33.332-125.332 33.332-124.254 33.332-115.15 33.1374-101.464 32.748-83.1953 32.3587-64.9271 32.1641-51.2409 32.1641-42.1367 32.1641-31.8346 34.4701-24.8568 39.082-21.2031 43.0352-17.9688 50.3125-16.3516 60.9141-16.3516 70.5573-16.3516 77.4154-17.6693 81.4883-20.3047 86.6393-23.599 89.2148-29.7682 89.2148-38.8125 89.2148-48.276 89.0651-62.4863 88.7656-81.4434 88.4661-100.4 88.3164-114.611 88.3164-124.074 88.3164-125.033 89.1849-125.632 90.9219-125.871 92.1797-126.051 93.9766-126.051 96.3125-125.871 99.0677-125.632 100.385-125.512 100.266-125.512 101.344-125.512 102.976-125.602 105.162-125.781 107.348-125.961 108.98-126.051 110.059-126.051 111.556-126.051 112.305-125.392 112.305-124.074Z" fill="#4472C4" transform="translate(118.866 243)"/></g></g><text fill="#4472C4" font-family="Berlin Sans FB,Berlin Sans FB_MSFontService,sans-serif" font-weight="400" font-size="184" transform="translate(686.583 464)">U</text><g clip-path="url(#clip14)" filter="url(#fx4)" transform="translate(692 224)"><g clip-path="url(#clip15)"><path d="M81.3086-116.977C80.1107-115 78.4635-112.005 76.3672-107.992 75.7083-106.135 74.5404-103.5 72.8633-100.086 72.5039-99.5469 72.0247-99.2773 71.4258-99.2773 71.4857-99.2773 68.5957-100.34 62.7559-102.467 56.916-104.593 52.1094-105.656 48.3359-105.656 37.3151-105.656 31.8047-100.805 31.8047-91.1016 31.8047-85.7109 35.668-81.0091 43.3945-76.9961 56.3919-70.2279 63.5794-66.3346 64.957-65.3164 72.6836-59.1471 76.5469-50.8216 76.5469-40.3398 76.5469-26.9232 71.2461-16.3516 60.6445-8.625 51.1211-1.67708 39.4115 1.79688 25.5156 1.79688 19.0469 1.79688 15.5729 1.07812 15.0938-0.359375 14.8542-2.63542 14.3151-5.95964 13.4766-10.332 12.9974-12.1289 12.2487-14.8242 11.2305-18.418 11.0508-18.957 10.9609-19.4661 10.9609-19.9453 10.9609-20.7839 11.4102-21.2031 12.3086-21.2031 13.7461-21.2031 15.9473-21.0534 18.9121-20.7539 21.877-20.4544 24.1081-20.3047 25.6055-20.3047 44.1732-20.3047 53.457-26.2943 53.457-38.2734 53.457-44.1432 49.7135-49.2344 42.2266-53.5469 28.5703-61.3333 21.5924-65.3763 21.293-65.6758 13.7461-71.7852 9.97266-79.9909 9.97266-90.293 9.97266-101.434 13.6263-110.358 20.9336-117.066 28.0612-123.535 37.2852-126.77 48.6055-126.77 53.3971-126.77 58.9075-125.991 65.1367-124.434 71.9049-122.697 76.9961-120.6 80.4102-118.145 80.7096-117.905 81.0091-117.516 81.3086-116.977ZM180.259-18.0586C180.259-17.1003 180.02-15.7227 179.54-13.9258 179.001-11.6497 178.672-10.2721 178.552-9.79297 178.372-7.63672 177.953-4.49219 177.294-0.359375 176.995 0.71875 176.216 1.25781 174.958 1.25781 174.359 1.25781 173.221 1.13802 171.544 0.898438 164.177-0.179687 152.767-0.71875 137.314-0.71875 132.941-0.71875 126.353-0.598958 117.548-0.359375 108.743-0.119792 102.155 0 97.7826 0 95.806 0 94.8177-0.86849 94.8177-2.60547 94.8177-9.3138 95.1921-19.3913 95.9408-32.8379 96.6895-46.2845 97.0638-56.362 97.0638-63.0703 97.0638-69.8984 96.7044-82.6263 95.9857-101.254 95.8659-106.046 95.5365-113.203 94.9974-122.727L94.9076-123.984C94.8477-125.362 95.6263-126.051 97.2435-126.051 101.436-126.051 107.725-125.931 116.111-125.691 124.496-125.452 130.785-125.332 134.978-125.332 138.991-125.332 144.995-125.452 152.992-125.691 160.988-125.931 166.992-126.051 171.005-126.051 173.82-126.051 175.348-125.182 175.587-123.445 176.845-115.539 177.474-110.628 177.474-108.711 177.474-107.333 176.815-106.645 175.497-106.645 170.406-106.645 162.695-106.929 152.363-107.498 142.031-108.067 134.259-108.352 129.048-108.352 124.137-108.352 121.037-107.693 119.749-106.375 118.462-105.057 117.818-101.793 117.818-96.582L117.818-83.1953C117.818-79.5417 117.908-77.4154 118.087-76.8164 118.626-74.9596 120.184-74.0312 122.759-74.0312 123.478-74.0312 124.496-74.0612 125.814-74.1211 127.191-74.1211 128.21-74.1211 128.868-74.1211 140.608-74.1211 151.15-74.3307 160.493-74.75 164.147-74.8698 168.46-75.1693 173.431-75.6484 174.689-75.7682 175.318-75.2292 175.318-74.0312 175.318-72.1146 175.093-69.1797 174.644-65.2266 174.195-61.2734 173.97-58.3086 173.97-56.332 173.97-55.2539 173.072-54.7148 171.275-54.7148 170.556-54.7148 167.891-54.9245 163.279-55.3438 159.924-55.7031 152.378-55.8828 140.638-55.8828 130.755-55.8828 124.496-55.763 121.861-55.5234 119.465-55.3437 118.087-54.0859 117.728-51.75 117.788-52.1693 117.818-49.8633 117.818-44.832L117.818-31.5352C117.818-25.306 118.776-21.4128 120.693-19.8555 122.19-18.5977 125.934-17.9688 131.923-17.9688L141.806-18.0586C145.999-18.0586 157.768-18.7773 177.115-20.2148L178.462-20.3047C179.66-20.4245 180.259-19.6758 180.259-18.0586Z" fill="#00B0F0" transform="translate(118.366 243)"/></g></g><text fill="#00B0F0" font-family="Berlin Sans FB,Berlin Sans FB_MSFontService,sans-serif" font-weight="400" font-size="184" transform="translate(808.083 464)">SE</text></g></svg>