<svg width="484" height="234" xmlns="http://www.w3.org/2000/svg" xmlns:xlink="http://www.w3.org/1999/xlink" overflow="hidden"><defs><filter id="fx0" x="-10%" y="-10%" width="120%" height="120%" filterUnits="userSpaceOnUse" primitiveUnits="userSpaceOnUse"><feComponentTransfer color-interpolation-filters="sRGB"><feFuncR type="discrete" tableValues="0 0"/><feFuncG type="discrete" tableValues="0 0"/><feFuncB type="discrete" tableValues="0 0"/><feFuncA type="linear" slope="0.4" intercept="0"/></feComponentTransfer><feGaussianBlur stdDeviation="1.40249 1.40249"/></filter><filter id="fx1" x="-10%" y="-10%" width="120%" height="120%" filterUnits="userSpaceOnUse" primitiveUnits="userSpaceOnUse"><feComponentTransfer color-interpolation-filters="sRGB"><feFuncR type="discrete" tableValues="0 0"/><feFuncG type="discrete" tableValues="0 0"/><feFuncB type="discrete" tableValues="0 0"/><feFuncA type="linear" slope="0.4" intercept="0"/></feComponentTransfer><feGaussianBlur stdDeviation="1.40249 1.40249"/></filter><filter id="fx2" x="-10%" y="-10%" width="120%" height="120%" filterUnits="userSpaceOnUse" primitiveUnits="userSpaceOnUse"><feComponentTransfer color-interpolation-filters="sRGB"><feFuncR type="discrete" tableValues="0 0"/><feFuncG type="discrete" tableValues="0 0"/><feFuncB type="discrete" tableValues="0 0"/><feFuncA type="linear" slope="0.4" intercept="0"/></feComponentTransfer><feGaussianBlur stdDeviation="1.40249 1.40249"/></filter><filter id="fx3" x="-10%" y="-10%" width="120%" height="120%" filterUnits="userSpaceOnUse" primitiveUnits="userSpaceOnUse"><feComponentTransfer color-interpolation-filters="sRGB"><feFuncR type="discrete" tableValues="0 0"/><feFuncG type="discrete" tableValues="0 0"/><feFuncB type="discrete" tableValues="0 0"/><feFuncA type="linear" slope="0.4" intercept="0"/></feComponentTransfer><feGaussianBlur stdDeviation="1.40249 1.40249"/></filter><clipPath id="clip4"><rect x="119" y="488" width="484" height="234"/></clipPath><clipPath id="clip5"><rect x="57" y="55" width="99" height="81"/></clipPath><clipPath id="clip6"><rect x="0" y="0" width="218" height="213"/></clipPath><clipPath id="clip7"><rect x="69" y="63" width="77" height="85"/></clipPath><clipPath id="clip8"><rect x="0" y="0" width="216" height="236"/></clipPath><clipPath id="clip9"><rect x="65" y="59" width="43" height="89"/></clipPath><clipPath id="clip10"><rect x="0" y="0" width="171" height="236"/></clipPath><clipPath id="clip11"><rect x="63" y="57" width="163" height="79"/></clipPath><clipPath id="clip12"><rect x="0" y="0" width="287" height="213"/></clipPath></defs><g clip-path="url(#clip4)" transform="translate(-119 -488)"><g clip-path="url(#clip5)" filter="url(#fx0)" transform="translate(118 500)"><g clip-path="url(#clip6)"><path d="M28.9688-60.0938C28.9687-59.7187 28.6875-59.5 28.125-59.4375 26.5937-59.2812 25.0781-59.1406 23.5781-59.0156 21.7969-58.7656 20.4375-58.1406 19.5-57.1406 17.9688-55.4844 17.2031-51.2812 17.2031-44.5312 18.2344-44.5312 19.8594-44.5 22.0781-44.4375 24.2969-44.375 25.9687-44.3438 27.0938-44.3438 27.8437-44.3438 28.2187-44.0625 28.2188-43.5 28.2187-42.625 28.25-41.3203 28.3125-39.5859 28.375-37.8516 28.4062-36.5625 28.4062-35.7188 28.4062-35.125 28.0937-34.8281 27.4688-34.8281 26.375-34.8281 24.7187-34.8828 22.5-34.9922 20.2812-35.1016 18.6406-35.1562 17.5781-35.1562L17.5781-21.1406C17.5781-18.9531 17.6562-15.6406 17.8125-11.2031 17.9688-6.76562 18.0469-3.45312 18.0469-1.26562 18.0469-0.421875 17.7344 0 17.1094 0L8.53125 0C7.71875 0 7.3125-0.484375 7.3125-1.45312L7.3125-33.7031C7.3125-34.5469 6.35937-34.9531 4.45312-34.9219 2.39062-34.8906 1.29688-34.9688 1.17188-35.1562 1.07812-35.25 1.03125-35.8281 1.03125-36.8906 1.03125-37.5781 1-38.6016 0.9375-39.9609 0.875-41.3203 0.84375-42.3438 0.84375-43.0312 0.84375-43.6875 2.82812-44.125 6.79688-44.3438 6.70312-46.3438 6.65625-47.9688 6.65625-49.2188 6.65625-54.75 7.64062-58.7969 9.60938-61.3594 11.3594-63.6719 13.9219-65.4844 17.2969-66.7969 20.3281-67.9844 23.4688-68.5781 26.7188-68.5781 27.0312-68.5781 27.25-68.4062 27.375-68.0625 27.4062-68 27.6797-66.6797 28.1953-64.1016 28.7109-61.5234 28.9687-60.1875 28.9688-60.0938ZM86.7604-64.7344C86.7604-61.1094 86.612-55.6797 86.3151-48.4453 86.0182-41.2109 85.8698-35.7812 85.8698-32.1562 85.8698-30.9687 85.8854-29.1953 85.9167-26.8359 85.9479-24.4766 85.9635-22.7188 85.9635-21.5625 85.9635-15.0312 85.3542-10.5 84.1354-7.96875 82.2604-4.09375 78.6198-1.46875 73.2135-0.09375 69.901 0.75 65.2292 1.17188 59.1979 1.17188 48.2604 1.17188 41.0885-0.640625 37.6823-4.26562 35.0573-7.07812 33.7448-12.7031 33.7448-21.1406 33.7448-22.1719 33.7604-23.9141 33.7917-26.3672 33.8229-28.8203 33.8385-30.75 33.8385-32.1562 33.8385-35.8438 33.6823-42.6406 33.3698-52.5469 33.3698-55.1094 33.2292-58.9375 32.9479-64.0312 32.9167-64.4062 32.901-64.6562 32.901-64.7812 32.901-65.4375 33.3073-65.7656 34.1198-65.7656 35.401-65.7656 37.1354-65.75 39.3229-65.7188 41.8542-65.6875 43.5729-65.6719 44.4792-65.6719 45.1979-65.6719 45.5573-65.3906 45.5573-64.8281 45.5573-60.0781 45.4557-52.9375 45.2526-43.4062 45.0495-33.875 44.9479-26.7344 44.9479-21.9844 44.9479-16.6094 46.151-12.9687 48.5573-11.0625 50.6198-9.375 54.4167-8.53125 59.9479-8.53125 64.9792-8.53125 68.5573-9.21875 70.6823-10.5938 73.3698-12.3125 74.7135-15.5312 74.7135-20.25 74.7135-25.1875 74.6354-32.6016 74.4792-42.4922 74.3229-52.3828 74.2448-59.7969 74.2448-64.7344 74.2448-65.2344 74.6979-65.5469 75.6042-65.6719 76.2604-65.7656 77.1979-65.7656 78.4167-65.6719 79.8542-65.5469 80.5417-65.4844 80.4792-65.4844 81.0417-65.4844 81.8932-65.5312 83.0339-65.625 84.1745-65.7188 85.026-65.7656 85.5885-65.7656 86.3698-65.7656 86.7604-65.4219 86.7604-64.7344Z" fill="#FFFFFF" transform="translate(63.0888 129)"/></g></g><text fill="#FFFFFF" font-family="Berlin Sans FB,Berlin Sans FB_MSFontService,sans-serif" font-weight="400" font-size="96" transform="translate(179.609 627)">fU</text><g clip-path="url(#clip7)" filter="url(#fx1)" transform="translate(203 487)"><g clip-path="url(#clip8)"><path d="M71.1592-72.1519C71.1592-68.1463 71.0199-62.1032 70.7412-54.0225 70.4626-45.9417 70.3232-39.8812 70.3232-35.8408 70.3232-32.0443 70.3581-26.3582 70.4277-18.7825 70.4974-11.2068 70.5322-5.52067 70.5322-1.72412 70.5322-0.574707 70.0968 0 69.2261 0 68.7036 0 67.9199-0.0522461 66.875-0.156738 65.8301-0.26123 65.0464-0.313477 64.5239-0.313477 63.9666-0.313477 63.1133-0.26123 61.9639-0.156738 60.8145-0.0522461 59.9611 0 59.4038 0 58.7769 0 58.028-0.574707 57.1572-1.72412 49.6338-11.8599 38.2267-26.9764 22.936-47.0737 20.5675-50.1388 19.1917-51.8455 18.8086-52.1938 18.4603-52.1938 18.2861-51.4798 18.2861-50.0518 18.2861-44.6878 18.3732-36.6332 18.5474-25.8879 18.7215-15.1427 18.8086-7.08805 18.8086-1.72412 18.8086-0.574707 18.4603 0 17.7637 0 17.1715 0 16.2659-0.0522461 15.0469-0.156738 13.8278-0.26123 12.9222-0.313477 12.3301-0.313477 11.7031-0.313477 10.7714-0.26123 9.53491-0.156738 8.29842-0.0522461 7.3667 0 6.73975 0 5.86898 0 5.43359-0.348307 5.43359-1.04492 5.43359-4.8763 5.61646-10.6495 5.98218-18.3645 6.3479-26.0795 6.53076-31.8701 6.53076-35.7363 6.53076-39.9508 6.37402-47.5439 6.06055-58.5156 5.99089-61.3717 5.81673-65.6559 5.53809-71.3682L5.48584-72.0474C5.45101-72.5698 5.86898-72.8485 6.73975-72.8833 9.00374-72.9181 10.7801-72.9878 12.0688-73.0923 12.5565-73.1271 13.4795-73.2664 14.8379-73.5103 15.9873-73.7192 16.8929-73.8237 17.5547-73.8237 17.8682-73.8237 18.408-73.3187 19.1743-72.3086 27.1854-61.3021 39.4458-44.9316 55.9556-23.1973 56.687-22.2917 57.3662-21.508 57.9932-20.8462 58.237-22.3091 58.3589-25.6528 58.3589-30.8774 58.3589-35.4054 58.1934-42.1974 57.8625-51.2534 57.5317-60.3094 57.3662-67.084 57.3662-71.5771 57.3662-72.7266 57.7145-73.3013 58.4111-73.3013 59.0381-73.3013 59.9872-73.249 61.2585-73.1445 62.5299-73.04 63.479-72.9878 64.106-72.9878 64.7677-72.9878 65.7604-73.04 67.084-73.1445 68.4075-73.249 69.4002-73.3013 70.062-73.3013 70.7935-73.3013 71.1592-72.9181 71.1592-72.1519Z" fill="#FFFFFF" transform="translate(69.5888 142)"/></g></g><text fill="#FFFFFF" font-family="Berlin Sans FB,Berlin Sans FB_MSFontService,sans-serif" font-weight="400" font-size="107" transform="translate(271.109 627)">N</text><g clip-path="url(#clip9)" filter="url(#fx2)" transform="translate(279 487)"><g clip-path="url(#clip10)"><path d="M32.2881-66.9795C32.2881-66.5615 31.9746-66.3177 31.3477-66.248 29.6409-66.0739 27.9517-65.9172 26.2798-65.7778 24.2944-65.4992 22.7793-64.8026 21.7344-63.688 20.0277-61.842 19.1743-57.1572 19.1743-49.6338 20.3237-49.6338 22.1349-49.599 24.6079-49.5293 27.0809-49.4596 28.9443-49.4248 30.1982-49.4248 31.0342-49.4248 31.4521-49.1113 31.4521-48.4844 31.4521-47.5091 31.487-46.0549 31.5566-44.1218 31.6263-42.1887 31.6611-40.752 31.6611-39.8115 31.6611-39.1497 31.3128-38.8188 30.6162-38.8188 29.3971-38.8188 27.5511-38.8798 25.0781-39.0017 22.6051-39.1236 20.7765-39.1846 19.5923-39.1846L19.5923-23.563C19.5923-21.1248 19.6794-17.4328 19.8535-12.4868 20.0277-7.54085 20.1147-3.8488 20.1147-1.41064 20.1147-0.470215 19.7664 0 19.0698 0L9.50879 0C8.60319 0 8.15039-0.539876 8.15039-1.61963L8.15039-37.5649C8.15039-38.5054 7.08805-38.9582 4.96338-38.9233 2.66455-38.8885 1.44548-38.9756 1.30615-39.1846 1.20166-39.2891 1.14941-39.9334 1.14941-41.1177 1.14941-41.8839 1.11458-43.0247 1.04492-44.5398 0.97526-46.0549 0.94043-47.1956 0.94043-47.9619 0.94043-48.6934 3.15218-49.181 7.57568-49.4248 7.47119-51.654 7.41895-53.4652 7.41895-54.8584 7.41895-61.0234 8.51611-65.534 10.7104-68.3901 12.661-70.9676 15.5171-72.9878 19.2788-74.4507 22.6574-75.7742 26.1579-76.436 29.7803-76.436 30.1286-76.436 30.3724-76.2445 30.5117-75.8613 30.5465-75.7917 30.8513-74.3201 31.426-71.4465 32.0007-68.573 32.2881-67.084 32.2881-66.9795Z" fill="#FFFFFF" transform="translate(70.0888 142)"/></g></g><text fill="#FFFFFF" font-family="Berlin Sans FB,Berlin Sans FB_MSFontService,sans-serif" font-weight="400" font-size="107" transform="translate(347.609 627)">f</text><g clip-path="url(#clip11)" filter="url(#fx3)" transform="translate(317 500)"><g clip-path="url(#clip12)"><path d="M58.5938-64.7344C58.5937-61.1094 58.4453-55.6797 58.1484-48.4453 57.8516-41.2109 57.7031-35.7812 57.7031-32.1562 57.7031-30.9687 57.7187-29.1953 57.75-26.8359 57.7812-24.4766 57.7969-22.7188 57.7969-21.5625 57.7969-15.0312 57.1875-10.5 55.9688-7.96875 54.0937-4.09375 50.4531-1.46875 45.0469-0.09375 41.7344 0.75 37.0625 1.17188 31.0312 1.17188 20.0938 1.17188 12.9219-0.640625 9.51562-4.26562 6.89062-7.07812 5.57812-12.7031 5.57812-21.1406 5.57812-22.1719 5.59375-23.9141 5.625-26.3672 5.65625-28.8203 5.67188-30.75 5.67188-32.1562 5.67188-35.8438 5.51562-42.6406 5.20312-52.5469 5.20312-55.1094 5.0625-58.9375 4.78125-64.0312 4.75-64.4062 4.73438-64.6562 4.73438-64.7812 4.73438-65.4375 5.14062-65.7656 5.95312-65.7656 7.23437-65.7656 8.96875-65.75 11.1562-65.7188 13.6875-65.6875 15.4062-65.6719 16.3125-65.6719 17.0312-65.6719 17.3906-65.3906 17.3906-64.8281 17.3906-60.0781 17.2891-52.9375 17.0859-43.4062 16.8828-33.875 16.7812-26.7344 16.7812-21.9844 16.7812-16.6094 17.9844-12.9687 20.3906-11.0625 22.4531-9.375 26.25-8.53125 31.7812-8.53125 36.8125-8.53125 40.3906-9.21875 42.5156-10.5938 45.2031-12.3125 46.5469-15.5312 46.5469-20.25 46.5469-25.1875 46.4688-32.6016 46.3125-42.4922 46.1562-52.3828 46.0781-59.7969 46.0781-64.7344 46.0781-65.2344 46.5312-65.5469 47.4375-65.6719 48.0937-65.7656 49.0312-65.7656 50.25-65.6719 51.6875-65.5469 52.375-65.4844 52.3125-65.4844 52.875-65.4844 53.7266-65.5312 54.8672-65.625 56.0078-65.7188 56.8594-65.7656 57.4219-65.7656 58.2031-65.7656 58.5937-65.4219 58.5938-64.7344ZM105.755-61.0312C105.13-60 104.271-58.4375 103.177-56.3438 102.833-55.375 102.224-54 101.349-52.2188 101.161-51.9375 100.911-51.7969 100.599-51.7969 100.63-51.7969 99.1224-52.3516 96.0755-53.4609 93.0286-54.5703 90.5208-55.125 88.5521-55.125 82.8021-55.125 79.9271-52.5937 79.9271-47.5312 79.9271-44.7188 81.9427-42.2656 85.974-40.1719 92.7552-36.6406 96.5052-34.6094 97.224-34.0781 101.255-30.8594 103.271-26.5156 103.271-21.0469 103.271-14.0469 100.505-8.53125 94.974-4.5 90.0052-0.875 83.8958 0.9375 76.6458 0.9375 73.2708 0.9375 71.4583 0.5625 71.2083-0.1875 71.0833-1.375 70.8021-3.10938 70.3646-5.39062 70.1146-6.32812 69.724-7.73437 69.1927-9.60938 69.099-9.89062 69.0521-10.1562 69.0521-10.4062 69.0521-10.8438 69.2865-11.0625 69.7552-11.0625 70.5052-11.0625 71.6536-10.9844 73.2005-10.8281 74.7474-10.6719 75.9115-10.5938 76.6927-10.5938 86.3802-10.5938 91.224-13.7188 91.224-19.9688 91.224-23.0312 89.2708-25.6875 85.3646-27.9375 78.2396-32 74.599-34.1094 74.4427-34.2656 70.5052-37.4531 68.5365-41.7344 68.5365-47.1094 68.5365-52.9219 70.4427-57.5781 74.2552-61.0781 77.974-64.4531 82.7865-66.1406 88.6927-66.1406 91.1927-66.1406 94.0677-65.7344 97.3177-64.9219 100.849-64.0156 103.505-62.9219 105.286-61.6406 105.443-61.5156 105.599-61.3125 105.755-61.0312ZM157.432-9.42188C157.432-8.92188 157.307-8.20312 157.057-7.26562 156.776-6.07812 156.604-5.35938 156.542-5.10938 156.448-3.98437 156.229-2.34375 155.885-0.1875 155.729 0.375 155.323 0.65625 154.667 0.65625 154.354 0.65625 153.76 0.59375 152.885 0.46875 149.042-0.09375 143.089-0.375 135.026-0.375 132.745-0.375 129.307-0.3125 124.714-0.1875 120.12-0.0625 116.682 0 114.401 0 113.37 0 112.854-0.453125 112.854-1.35938 112.854-4.85937 113.049-10.1172 113.44-17.1328 113.831-24.1484 114.026-29.4062 114.026-32.9062 114.026-36.4688 113.839-43.1094 113.464-52.8281 113.401-55.3281 113.229-59.0625 112.948-64.0312L112.901-64.6875C112.87-65.4062 113.276-65.7656 114.12-65.7656 116.307-65.7656 119.589-65.7031 123.964-65.5781 128.339-65.4531 131.62-65.3906 133.807-65.3906 135.901-65.3906 139.034-65.4531 143.206-65.5781 147.378-65.7031 150.51-65.7656 152.604-65.7656 154.073-65.7656 154.87-65.3125 154.995-64.4062 155.651-60.2812 155.979-57.7187 155.979-56.7188 155.979-56 155.635-55.6406 154.948-55.6406 152.292-55.6406 148.268-55.7891 142.878-56.0859 137.487-56.3828 133.432-56.5312 130.714-56.5312 128.151-56.5312 126.534-56.1875 125.862-55.5 125.19-54.8125 124.854-53.1094 124.854-50.3906L124.854-43.4062C124.854-41.5 124.901-40.3906 124.995-40.0781 125.276-39.1094 126.089-38.625 127.432-38.625 127.807-38.625 128.339-38.6406 129.026-38.6719 129.745-38.6719 130.276-38.6719 130.62-38.6719 136.745-38.6719 142.245-38.7812 147.12-39 149.026-39.0625 151.276-39.2188 153.87-39.4688 154.526-39.5312 154.854-39.25 154.854-38.625 154.854-37.625 154.737-36.0938 154.503-34.0312 154.268-31.9687 154.151-30.4219 154.151-29.3906 154.151-28.8281 153.682-28.5469 152.745-28.5469 152.37-28.5469 150.979-28.6562 148.573-28.875 146.823-29.0625 142.885-29.1562 136.76-29.1562 131.604-29.1562 128.339-29.0937 126.964-28.9688 125.714-28.875 124.995-28.2187 124.807-27 124.839-27.2187 124.854-26.0156 124.854-23.3906L124.854-16.4531C124.854-13.2031 125.354-11.1719 126.354-10.3594 127.135-9.70312 129.089-9.375 132.214-9.375L137.37-9.42188C139.557-9.42188 145.698-9.79688 155.792-10.5469L156.495-10.5938C157.12-10.6562 157.432-10.2656 157.432-9.42188Z" fill="#FFFFFF" transform="translate(63.4221 129)"/></g></g><text fill="#FFFFFF" font-family="Berlin Sans FB,Berlin Sans FB_MSFontService,sans-serif" font-weight="400" font-size="96" transform="translate(378.943 627)">USE</text></g></svg>