<svg viewBox="0 0 96 96" xmlns="http://www.w3.org/2000/svg" xmlns:xlink="http://www.w3.org/1999/xlink" id="Icons_FemaleProfile" overflow="hidden"><path d="M80 66C79.9478 63.4946 78.773 61.1451 76.8 59.6 72.4 56 66.8 53.6 61.2 52 56.9217 50.6903 52.4742 50.0165 48 50 43.5307 50.0771 39.0916 50.7497 34.8 52 29.2073 53.632 23.9323 56.2019 19.2 59.6 17.227 61.1451 16.0522 63.4946 16 66L16 82 80 82Z"/><path d="M65.11 41.6C64.19 38 67.71 29 67.74 22.66 67.74 17.59 66.3 15.32 63.58 13.78 62.01 12.89 58.39 13.71 58.39 13.71 58.39 13.71 56.52 10.17 50.26 8.22 45.1161 6.81953 39.6265 7.52102 35 10.17 31.13 12.67 29.26 15.42 29.17 24.88 29.09 33.55 30.28 41.25 29.73 44.88 29.4764 46.8893 28.7121 48.8001 27.51 50.43 27.51 50.43 33.51 51.2 36.86 49.43 38.5458 48.2989 40.1437 47.042 41.64 45.67 36.5078 43.2764 32.7665 38.6495 31.5 33.13 31.37 32.65 30.5 29.51 31.89 27.75 32.65 26.75 34.39 26.47 37.29 25.96 40.7614 25.5027 44.1493 24.5497 47.35 23.13 50.948 21.3207 54.2848 19.0333 57.27 16.33 57.6635 15.9425 58.2966 15.9473 58.6842 16.3408 58.8315 16.4904 58.928 16.6825 58.96 16.89 59.1981 18.535 59.7698 20.1139 60.64 21.53 61.0476 22.0522 61.5496 22.4932 62.12 22.83 62.7849 23.2284 63.3576 23.7635 63.8 24.4 64.5221 25.8093 64.9314 27.3579 65 28.94 64.9346 36.2374 60.5989 42.8192 53.92 45.76 55.18 46.87 56.83 48.24 58.65 49.56 61.65 51.73 68.9 48.73 68.9 48.73 68.9 48.73 66.56 47.33 65.11 41.6Z"/><path d="M63 29C62.9466 27.7913 62.6543 26.6051 62.14 25.51 61.8471 25.0962 61.4642 24.7543 61.02 24.51 60.2552 24.0493 59.5781 23.4569 59.02 22.76 58.2154 21.6016 57.6353 20.3024 57.31 18.93 54.5181 21.2741 51.4645 23.2874 48.21 24.93 44.8317 26.4328 41.2553 27.4431 37.59 27.93 35.9 28.23 33.79 28.6 33.43 28.98 32.83 29.76 33.14 31.75 33.43 32.59 35.14 39.8 41.26 45 48 45 56 45 63 37.52 63 29Z"/></svg>