<svg viewBox="0 0 96 96" xmlns="http://www.w3.org/2000/svg" xmlns:xlink="http://www.w3.org/1999/xlink" id="Icons_Checklist_RTL" overflow="hidden"><path d="M23 14 73 14 73 82 23 82 23 14ZM17 88 79 88 79 8 17 8 17 88Z"/><g><rect x="29" y="23" width="17" height="4"/><rect x="29" y="39" width="17" height="4"/><rect x="29" y="71" width="17" height="4"/><rect x="29" y="55" width="17" height="4"/></g><g><path d="M67 20.8 64.2 18 57.6 24.6 55 22 52.2 24.8 57.6 30.2Z"/><path d="M67 36.8 64.2 34 57.6 40.6 55 38 52.2 40.8 57.6 46.2Z"/><path d="M67 52.8 64.2 50 57.6 56.6 55 54 52.2 56.8 57.6 62.2Z"/><path d="M67 68.6 64.2 65.8 57.6 72.4 55 69.8 52.2 72.6 57.6 78Z"/></g></svg>