<svg viewBox="0 0 96 96" xmlns="http://www.w3.org/2000/svg" xmlns:xlink="http://www.w3.org/1999/xlink" id="Icons_WebCam" overflow="hidden"><path d="M32 42C32 33.2 39.2 26 48 26 56.8 26 64 33.2 64 42 64 50.8 56.8 58 48 58 39.2 58 32 50.8 32 42ZM48 18C49.1 18 50 18.9 50 20 50 21.1 49.1 22 48 22 46.9 22 46 21.1 46 20 46 18.9 46.9 18 48 18ZM68.5 75.6 56 74 56 68.8C67.6 65.4 76 54.7 76 42 76 26.5 63.5 14 48 14 32.5 14 20 26.5 20 42 20 54.7 28.4 65.4 40 68.8L40 74 27.5 75.6C25.5 75.9 24 77.6 24 79.6L24 82 72 82 72 79.5C72 77.5 70.5 75.8 68.5 75.6Z"/><path d="M48 48C44.7 48 42 45.3 42 42 42 38.7 44.7 36 48 36 51.3 36 54 38.7 54 42 54 45.3 51.3 48 48 48ZM48 30C41.4 30 36 35.4 36 42 36 48.6 41.4 54 48 54 54.6 54 60 48.6 60 42 60 35.4 54.6 30 48 30Z"/></svg>