<svg viewBox="0 0 96 96" xmlns="http://www.w3.org/2000/svg" xmlns:xlink="http://www.w3.org/1999/xlink" id="Icons_Binoculars" overflow="hidden"><rect x="45" y="26" width="6" height="24"/><rect x="55" y="14" width="13" height="8"/><path d="M76 26 55 26 55 50C55 52.2 56.8 54 59 54L60 54 60 78C60 80.2 61.8 82 64 82L78 82C80.2 82 82 80.2 82 78L82 59 76 26Z"/><path d="M14 59 14 78C14 80.2 15.8 82 18 82L32 82C34.2 82 36 80.2 36 78L36 54 37 54C39.2 54 41 52.2 41 50L41 26 20 26 14 59Z"/><rect x="28" y="14" width="13" height="8"/></svg>